<?xml version="1.0" encoding="UTF-8"?>
<svg xmlns="http://www.w3.org/2000/svg" xmlns:xlink="http://www.w3.org/1999/xlink" width="110px" height="110px" viewBox="0 0 110 110" version="1.1">
<g id="surface1">
<path style="fill-rule:evenodd;fill:rgb(100%,100%,100%);fill-opacity:1;stroke-width:1.5;stroke-linecap:round;stroke-linejoin:round;stroke:rgb(0%,0%,0%);stroke-opacity:1;stroke-miterlimit:4;" d="M 21.999822 10.000781 C 32.500355 10.999538 38.49929 18.000426 38.00071 38.999893 L 15.000533 38.999893 C 15.000533 29.999893 24.99929 32.500781 23.000178 18.000426 " transform="matrix(2.444444,0,0,2.444444,0,0.733333)"/>
<path style="fill-rule:evenodd;fill:rgb(100%,100%,100%);fill-opacity:1;stroke-width:1.5;stroke-linecap:round;stroke-linejoin:round;stroke:rgb(0%,0%,0%);stroke-opacity:1;stroke-miterlimit:4;" d="M 24.000533 18.000426 C 24.379261 20.910405 18.450639 25.370455 15.99929 27.000426 C 12.999822 28.999538 13.180398 31.340625 11.00071 31.000249 C 9.957209 30.060618 12.410156 27.959233 11.00071 28.000781 C 10.000355 28.000781 11.189276 29.229652 10.000355 29.999893 C 9 29.999893 5.997337 31.000249 6.000533 26.000071 C 6.000533 23.999361 11.999467 14.000604 11.999467 14.000604 C 11.999467 14.000604 13.889915 12.100568 14.000178 10.499361 C 13.269886 9.505398 13.5 8.500249 13.5 7.499893 C 14.500355 6.499538 16.499467 10.000781 16.499467 10.000781 L 18.500178 10.000781 C 18.500178 10.000781 19.280007 8.008061 20.999467 6.999716 C 21.999822 6.999716 21.999822 10.000781 21.999822 10.000781 " transform="matrix(2.444444,0,0,2.444444,0,0.733333)"/>
<path style="fill-rule:evenodd;fill:rgb(0%,0%,0%);fill-opacity:1;stroke-width:1.5;stroke-linecap:round;stroke-linejoin:round;stroke:rgb(0%,0%,0%);stroke-opacity:1;stroke-miterlimit:4;" d="M 9.500178 25.499893 C 9.500178 25.776349 9.276456 26.000071 9 26.000071 C 8.723544 26.000071 8.499822 25.776349 8.499822 25.499893 C 8.499822 25.223437 8.723544 24.999716 9 24.999716 C 9.276456 24.999716 9.500178 25.223437 9.500178 25.499893 Z M 9.500178 25.499893 " transform="matrix(2.444444,0,0,2.444444,0,0.733333)"/>
<path style="fill-rule:evenodd;fill:rgb(0%,0%,0%);fill-opacity:1;stroke-width:1.5;stroke-linecap:round;stroke-linejoin:round;stroke:rgb(0%,0%,0%);stroke-opacity:1;stroke-miterlimit:4;" d="M 15.000574 15.500161 C 15.000903 16.328501 14.776353 17.000661 14.499246 17.000114 C 14.224321 17.000152 14.000708 16.328408 14.000379 15.500068 C 14.00005 14.671728 14.223215 14.000368 14.499524 13.99953 C 14.776631 14.000077 15.000244 14.671821 15.000574 15.500161 Z M 15.000574 15.500161 " transform="matrix(2.116889,1.222222,-1.222222,2.116889,23.694,-11.911778)"/>
</g>
</svg>
