<?xml version="1.0" encoding="UTF-8"?>
<svg xmlns="http://www.w3.org/2000/svg" xmlns:xlink="http://www.w3.org/1999/xlink" width="110px" height="110px" viewBox="0 0 110 110" version="1.1">
<g id="surface1">
<path style="fill-rule:nonzero;fill:rgb(100%,100%,100%);fill-opacity:1;stroke-width:1.5;stroke-linecap:butt;stroke-linejoin:round;stroke:rgb(0%,0%,0%);stroke-opacity:1;stroke-miterlimit:4;" d="M 9 25.999645 C 17.499822 24.50071 29.999467 24.50071 36 25.999645 L 38.49929 13.5 L 30.999822 24.99929 L 30.699396 10.900036 L 25.499467 24.50071 L 22.5 10.000355 L 19.500533 24.50071 L 14.300604 10.900036 L 14.000178 24.99929 L 6.50071 13.5 Z M 9 25.999645 " transform="matrix(2.444444,0,0,2.444444,0,0)"/>
<path style="fill-rule:nonzero;fill:rgb(100%,100%,100%);fill-opacity:1;stroke-width:1.5;stroke-linecap:butt;stroke-linejoin:round;stroke:rgb(0%,0%,0%);stroke-opacity:1;stroke-miterlimit:4;" d="M 9 25.999645 C 9 28.000355 10.500533 28.000355 11.49929 29.999467 C 12.499645 31.5 12.499645 30.999822 11.999467 33.50071 C 10.500533 34.499467 11.00071 36 11.00071 36 C 9.500178 37.500533 11.00071 38.49929 11.00071 38.49929 C 17.499822 39.499645 27.500178 39.499645 33.99929 38.49929 C 33.99929 38.49929 35.499822 37.500533 33.99929 36 C 33.99929 36 34.499467 34.499467 33.000533 33.50071 C 32.500355 30.999822 32.500355 31.5 33.50071 29.999467 C 34.499467 28.000355 36 28.000355 36 25.999645 C 27.500178 24.50071 17.499822 24.50071 9 25.999645 Z M 9 25.999645 " transform="matrix(2.444444,0,0,2.444444,0,0)"/>
<path style="fill:none;stroke-width:1.5;stroke-linecap:butt;stroke-linejoin:round;stroke:rgb(0%,0%,0%);stroke-opacity:1;stroke-miterlimit:4;" d="M 11.49929 29.999467 C 15.000533 29.00071 29.999467 29.00071 33.50071 29.999467 " transform="matrix(2.444444,0,0,2.444444,0,0)"/>
<path style="fill:none;stroke-width:1.5;stroke-linecap:butt;stroke-linejoin:round;stroke:rgb(0%,0%,0%);stroke-opacity:1;stroke-miterlimit:4;" d="M 11.999467 33.50071 C 18 32.500355 27 32.500355 33.000533 33.50071 " transform="matrix(2.444444,0,0,2.444444,0,0)"/>
<path style="fill-rule:nonzero;fill:rgb(100%,100%,100%);fill-opacity:1;stroke-width:1.5;stroke-linecap:butt;stroke-linejoin:round;stroke:rgb(0%,0%,0%);stroke-opacity:1;stroke-miterlimit:4;" d="M 7.999645 11.999467 C 7.999645 13.105291 7.104759 14.000178 6.000533 14.000178 C 4.894709 14.000178 3.999822 13.105291 3.999822 11.999467 C 3.999822 10.895241 4.894709 10.000355 6.000533 10.000355 C 7.104759 10.000355 7.999645 10.895241 7.999645 11.999467 Z M 7.999645 11.999467 " transform="matrix(2.444444,0,0,2.444444,0,0)"/>
<path style="fill-rule:nonzero;fill:rgb(100%,100%,100%);fill-opacity:1;stroke-width:1.5;stroke-linecap:butt;stroke-linejoin:round;stroke:rgb(0%,0%,0%);stroke-opacity:1;stroke-miterlimit:4;" d="M 15.99929 9 C 15.99929 10.104226 15.104403 11.00071 14.000178 11.00071 C 12.895952 11.00071 11.999467 10.104226 11.999467 9 C 11.999467 7.895774 12.895952 6.99929 14.000178 6.99929 C 15.104403 6.99929 15.99929 7.895774 15.99929 9 Z M 15.99929 9 " transform="matrix(2.444444,0,0,2.444444,0,0)"/>
<path style="fill-rule:nonzero;fill:rgb(100%,100%,100%);fill-opacity:1;stroke-width:1.5;stroke-linecap:butt;stroke-linejoin:round;stroke:rgb(0%,0%,0%);stroke-opacity:1;stroke-miterlimit:4;" d="M 24.50071 7.999645 C 24.50071 9.103871 23.604226 10.000355 22.5 10.000355 C 21.395774 10.000355 20.49929 9.103871 20.49929 7.999645 C 20.49929 6.895419 21.395774 6.000533 22.5 6.000533 C 23.604226 6.000533 24.50071 6.895419 24.50071 7.999645 Z M 24.50071 7.999645 " transform="matrix(2.444444,0,0,2.444444,0,0)"/>
<path style="fill-rule:nonzero;fill:rgb(100%,100%,100%);fill-opacity:1;stroke-width:1.5;stroke-linecap:butt;stroke-linejoin:round;stroke:rgb(0%,0%,0%);stroke-opacity:1;stroke-miterlimit:4;" d="M 33.000533 9 C 33.000533 10.104226 32.104048 11.00071 30.999822 11.00071 C 29.895597 11.00071 29.00071 10.104226 29.00071 9 C 29.00071 7.895774 29.895597 6.99929 30.999822 6.99929 C 32.104048 6.99929 33.000533 7.895774 33.000533 9 Z M 33.000533 9 " transform="matrix(2.444444,0,0,2.444444,0,0)"/>
<path style="fill-rule:nonzero;fill:rgb(100%,100%,100%);fill-opacity:1;stroke-width:1.5;stroke-linecap:butt;stroke-linejoin:round;stroke:rgb(0%,0%,0%);stroke-opacity:1;stroke-miterlimit:4;" d="M 41.000178 11.999467 C 41.000178 13.105291 40.105291 14.000178 38.999467 14.000178 C 37.895241 14.000178 37.000355 13.105291 37.000355 11.999467 C 37.000355 10.895241 37.895241 10.000355 38.999467 10.000355 C 40.105291 10.000355 41.000178 10.895241 41.000178 11.999467 Z M 41.000178 11.999467 " transform="matrix(2.444444,0,0,2.444444,0,0)"/>
</g>
</svg>
