<?xml version="1.0" encoding="UTF-8"?>
<svg xmlns="http://www.w3.org/2000/svg" xmlns:xlink="http://www.w3.org/1999/xlink" width="110px" height="110px" viewBox="0 0 110 110" version="1.1">
<g id="surface1">
<path style="fill-rule:evenodd;fill:rgb(0%,0%,0%);fill-opacity:1;stroke-width:1.5;stroke-linecap:butt;stroke-linejoin:round;stroke:rgb(0%,0%,0%);stroke-opacity:1;stroke-miterlimit:4;" d="M 9 35.999254 C 12.389382 35.029261 19.110618 36.430717 22.5 34.000142 C 25.889382 36.430717 32.610618 35.029261 36 35.999254 C 36 35.999254 37.650746 36.539382 38.999467 37.999964 C 38.320312 38.969957 37.35032 38.990732 36 38.500142 C 32.610618 37.530149 25.889382 38.960369 22.5 37.499787 C 19.110618 38.960369 12.389382 37.530149 9 38.500142 C 7.64968 38.990732 6.679687 38.969957 6.000533 37.999964 C 7.349254 36.539382 9 35.999254 9 35.999254 Z M 9 35.999254 " transform="matrix(2.444444,0,0,2.444444,0,1.466667)"/>
<path style="fill-rule:evenodd;fill:rgb(0%,0%,0%);fill-opacity:1;stroke-width:1.5;stroke-linecap:butt;stroke-linejoin:round;stroke:rgb(0%,0%,0%);stroke-opacity:1;stroke-miterlimit:4;" d="M 15.000533 31.999432 C 17.499822 34.50032 27.500178 34.50032 29.999467 31.999432 C 30.499645 30.500497 29.999467 30.00032 29.999467 30.00032 C 29.999467 27.499432 27.500178 26.000497 27.500178 26.000497 C 33.000533 24.499964 33.50071 14.499609 22.5 10.499787 C 11.49929 14.499609 11.999467 24.499964 17.499822 26.000497 C 17.499822 26.000497 15.000533 27.499432 15.000533 30.00032 C 15.000533 30.00032 14.500355 30.500497 15.000533 31.999432 Z M 15.000533 31.999432 " transform="matrix(2.444444,0,0,2.444444,0,1.466667)"/>
<path style="fill-rule:evenodd;fill:rgb(0%,0%,0%);fill-opacity:1;stroke-width:1.5;stroke-linecap:butt;stroke-linejoin:round;stroke:rgb(0%,0%,0%);stroke-opacity:1;stroke-miterlimit:4;" d="M 24.99929 8.000497 C 24.99929 9.381179 23.880682 10.499787 22.5 10.499787 C 21.119318 10.499787 20.00071 9.381179 20.00071 8.000497 C 20.00071 6.619815 21.119318 5.499609 22.5 5.499609 C 23.880682 5.499609 24.99929 6.619815 24.99929 8.000497 Z M 24.99929 8.000497 " transform="matrix(2.444444,0,0,2.444444,0,1.466667)"/>
<path style="fill:none;stroke-width:1.5;stroke-linecap:round;stroke-linejoin:miter;stroke:rgb(100%,100%,100%);stroke-opacity:1;stroke-miterlimit:4;" d="M 17.499822 26.000497 L 27.500178 26.000497 M 15.000533 30.00032 L 29.999467 30.00032 M 22.5 15.499964 L 22.5 20.500142 M 20.00071 17.999254 L 24.99929 17.999254 " transform="matrix(2.444444,0,0,2.444444,0,1.466667)"/>
</g>
</svg>
