<?xml version="1.0" encoding="UTF-8"?>
<svg xmlns="http://www.w3.org/2000/svg" xmlns:xlink="http://www.w3.org/1999/xlink" width="110px" height="110px" viewBox="0 0 110 110" version="1.1">
<g id="surface1">
<path style="fill:none;stroke-width:1.5;stroke-linecap:round;stroke-linejoin:miter;stroke:rgb(0%,0%,0%);stroke-opacity:1;stroke-miterlimit:4;" d="M 22.5 11.630327 L 22.5 6.000533 " transform="matrix(2.444444,0,0,2.444444,0,0)"/>
<path style="fill-rule:evenodd;fill:rgb(0%,0%,0%);fill-opacity:1;stroke-width:1.5;stroke-linecap:butt;stroke-linejoin:miter;stroke:rgb(0%,0%,0%);stroke-opacity:1;stroke-miterlimit:4;" d="M 22.5 24.99929 C 22.5 24.99929 27 17.499822 25.499467 14.500355 C 25.499467 14.500355 24.50071 11.999467 22.5 11.999467 C 20.49929 11.999467 19.500533 14.500355 19.500533 14.500355 C 18 17.499822 22.5 24.99929 22.5 24.99929 " transform="matrix(2.444444,0,0,2.444444,0,0)"/>
<path style="fill-rule:evenodd;fill:rgb(0%,0%,0%);fill-opacity:1;stroke-width:1.5;stroke-linecap:round;stroke-linejoin:round;stroke:rgb(0%,0%,0%);stroke-opacity:1;stroke-miterlimit:4;" d="M 12.499645 37.000355 C 18 40.5 27 40.5 32.500355 37.000355 L 32.500355 29.999467 C 32.500355 29.999467 41.500355 25.499467 38.49929 19.500533 C 34.499467 12.999822 24.99929 15.99929 22.5 23.500355 L 22.5 27 L 22.5 23.500355 C 20.00071 15.99929 10.500533 12.999822 6.50071 19.500533 C 3.499645 25.499467 12.499645 29.999467 12.499645 29.999467 L 12.499645 37.000355 " transform="matrix(2.444444,0,0,2.444444,0,0)"/>
<path style="fill:none;stroke-width:1.5;stroke-linecap:round;stroke-linejoin:miter;stroke:rgb(0%,0%,0%);stroke-opacity:1;stroke-miterlimit:4;" d="M 20.00071 7.999645 L 24.99929 7.999645 " transform="matrix(2.444444,0,0,2.444444,0,0)"/>
<path style="fill:none;stroke-width:1.5;stroke-linecap:round;stroke-linejoin:round;stroke:rgb(100%,100%,100%);stroke-opacity:1;stroke-miterlimit:4;" d="M 32.000178 29.49929 C 32.000178 29.49929 40.5 25.499467 38.029474 19.850497 C 34.149503 14.000178 24.99929 18 22.5 24.50071 L 22.5 26.600497 L 22.5 24.50071 C 20.00071 18 10.850497 14.000178 6.970526 19.850497 C 4.5 25.499467 12.999822 29.49929 12.999822 29.49929 " transform="matrix(2.444444,0,0,2.444444,0,0)"/>
<path style="fill:none;stroke-width:1.5;stroke-linecap:round;stroke-linejoin:round;stroke:rgb(100%,100%,100%);stroke-opacity:1;stroke-miterlimit:4;" d="M 12.499645 29.999467 C 18 27 27 27 32.500355 29.999467 M 12.499645 33.50071 C 18 30.499645 27 30.499645 32.500355 33.50071 M 12.499645 37.000355 C 18 33.99929 27 33.99929 32.500355 37.000355 " transform="matrix(2.444444,0,0,2.444444,0,0)"/>
</g>
</svg>
