<?xml version="1.0" encoding="UTF-8"?>
<svg xmlns="http://www.w3.org/2000/svg" xmlns:xlink="http://www.w3.org/1999/xlink" width="110px" height="110px" viewBox="0 0 110 110" version="1.1">
<g id="surface1">
<path style="fill-rule:nonzero;fill:rgb(0%,0%,0%);fill-opacity:1;stroke-width:1.5;stroke-linecap:round;stroke-linejoin:miter;stroke:rgb(0%,0%,0%);stroke-opacity:1;stroke-miterlimit:4;" d="M 22.5 9 C 20.28995 9 18.500178 10.789773 18.500178 12.999822 C 18.500178 13.889915 18.789418 14.709695 19.280007 15.379261 C 17.330433 16.499467 15.99929 18.589666 15.99929 20.999467 C 15.99929 23.03054 16.940518 24.839489 18.410689 26.030007 C 15.409624 27.089489 11.00071 31.579901 11.00071 39.499645 L 33.99929 39.499645 C 33.99929 31.579901 29.590376 27.089489 26.589311 26.030007 C 28.059482 24.839489 29.00071 23.03054 29.00071 20.999467 C 29.00071 18.589666 27.669567 16.499467 25.719993 15.379261 C 26.210582 14.709695 26.499822 13.889915 26.499822 12.999822 C 26.499822 10.789773 24.71005 9 22.5 9 Z M 22.5 9 " transform="matrix(2.444444,0,0,2.444444,0,0)"/>
</g>
</svg>
