<?xml version="1.0" encoding="UTF-8"?>
<svg xmlns="http://www.w3.org/2000/svg" xmlns:xlink="http://www.w3.org/1999/xlink" width="110px" height="110px" viewBox="0 0 110 110" version="1.1">
<g id="surface1">
<path style="fill-rule:evenodd;fill:rgb(0%,0%,0%);fill-opacity:1;stroke-width:1.5;stroke-linecap:butt;stroke-linejoin:round;stroke:rgb(0%,0%,0%);stroke-opacity:1;stroke-miterlimit:4;" d="M 9 38.999893 L 36 38.999893 L 36 36.000426 L 9 36.000426 Z M 9 38.999893 " transform="matrix(2.444444,0,0,2.444444,0,0.733333)"/>
<path style="fill-rule:evenodd;fill:rgb(0%,0%,0%);fill-opacity:1;stroke-width:1.5;stroke-linecap:butt;stroke-linejoin:round;stroke:rgb(0%,0%,0%);stroke-opacity:1;stroke-miterlimit:4;" d="M 12.499645 32.000604 L 14.000178 29.499716 L 30.999822 29.499716 L 32.500355 32.000604 Z M 12.499645 32.000604 " transform="matrix(2.444444,0,0,2.444444,0,0.733333)"/>
<path style="fill-rule:evenodd;fill:rgb(0%,0%,0%);fill-opacity:1;stroke-width:1.5;stroke-linecap:butt;stroke-linejoin:round;stroke:rgb(0%,0%,0%);stroke-opacity:1;stroke-miterlimit:4;" d="M 11.999467 36.000426 L 11.999467 32.000604 L 33.000533 32.000604 L 33.000533 36.000426 Z M 11.999467 36.000426 " transform="matrix(2.444444,0,0,2.444444,0,0.733333)"/>
<path style="fill-rule:evenodd;fill:rgb(0%,0%,0%);fill-opacity:1;stroke-width:1.5;stroke-linecap:butt;stroke-linejoin:miter;stroke:rgb(0%,0%,0%);stroke-opacity:1;stroke-miterlimit:4;" d="M 14.000178 29.499716 L 14.000178 16.499893 L 30.999822 16.499893 L 30.999822 29.499716 Z M 14.000178 29.499716 " transform="matrix(2.444444,0,0,2.444444,0,0.733333)"/>
<path style="fill-rule:evenodd;fill:rgb(0%,0%,0%);fill-opacity:1;stroke-width:1.5;stroke-linecap:butt;stroke-linejoin:round;stroke:rgb(0%,0%,0%);stroke-opacity:1;stroke-miterlimit:4;" d="M 14.000178 16.499893 L 11.00071 14.000604 L 33.99929 14.000604 L 30.999822 16.499893 Z M 14.000178 16.499893 " transform="matrix(2.444444,0,0,2.444444,0,0.733333)"/>
<path style="fill-rule:evenodd;fill:rgb(0%,0%,0%);fill-opacity:1;stroke-width:1.5;stroke-linecap:butt;stroke-linejoin:round;stroke:rgb(0%,0%,0%);stroke-opacity:1;stroke-miterlimit:4;" d="M 11.00071 14.000604 L 11.00071 9.000426 L 15.000533 9.000426 L 15.000533 10.999538 L 20.00071 10.999538 L 20.00071 9.000426 L 24.99929 9.000426 L 24.99929 10.999538 L 29.999467 10.999538 L 29.999467 9.000426 L 33.99929 9.000426 L 33.99929 14.000604 Z M 11.00071 14.000604 " transform="matrix(2.444444,0,0,2.444444,0,0.733333)"/>
<path style="fill:none;stroke-width:1;stroke-linecap:round;stroke-linejoin:miter;stroke:rgb(100%,100%,100%);stroke-opacity:1;stroke-miterlimit:4;" d="M 11.999467 35.500249 L 33.000533 35.500249 " transform="matrix(2.444444,0,0,2.444444,0,0.733333)"/>
<path style="fill:none;stroke-width:1;stroke-linecap:round;stroke-linejoin:miter;stroke:rgb(100%,100%,100%);stroke-opacity:1;stroke-miterlimit:4;" d="M 12.999822 31.500426 L 32.000178 31.500426 " transform="matrix(2.444444,0,0,2.444444,0,0.733333)"/>
<path style="fill:none;stroke-width:1;stroke-linecap:round;stroke-linejoin:miter;stroke:rgb(100%,100%,100%);stroke-opacity:1;stroke-miterlimit:4;" d="M 14.000178 29.499716 L 30.999822 29.499716 " transform="matrix(2.444444,0,0,2.444444,0,0.733333)"/>
<path style="fill:none;stroke-width:1;stroke-linecap:round;stroke-linejoin:miter;stroke:rgb(100%,100%,100%);stroke-opacity:1;stroke-miterlimit:4;" d="M 14.000178 16.499893 L 30.999822 16.499893 " transform="matrix(2.444444,0,0,2.444444,0,0.733333)"/>
<path style="fill:none;stroke-width:1;stroke-linecap:round;stroke-linejoin:miter;stroke:rgb(100%,100%,100%);stroke-opacity:1;stroke-miterlimit:4;" d="M 11.00071 14.000604 L 33.99929 14.000604 " transform="matrix(2.444444,0,0,2.444444,0,0.733333)"/>
</g>
</svg>
